<?xml version="1.0" encoding="UTF-8"?>
<svg id="uuid-e1a5a01e-cdc3-496a-b87f-25b7d074c86d" data-name="Capa 1" xmlns="http://www.w3.org/2000/svg" xmlns:xlink="http://www.w3.org/1999/xlink" viewBox="0 0 530.809 503.234">
  <defs>
    <filter id="uuid-ba717d89-4ba1-450e-ad9b-6a6dc41a95ad" data-name="outer-glow-1" filterUnits="userSpaceOnUse">
      <feOffset dx="0" dy="0"/>
      <feGaussianBlur result="uuid-cfd8160b-9876-403b-9954-91e37b52f13c" stdDeviation="5"/>
      <feFlood flood-color="#fff" flood-opacity=".5"/>
      <feComposite in2="uuid-cfd8160b-9876-403b-9954-91e37b52f13c" operator="in"/>
      <feComposite in="SourceGraphic"/>
    </filter>
    <filter id="uuid-52459dd1-810a-4c7e-afaf-382c012c2ab5" data-name="outer-glow-2" filterUnits="userSpaceOnUse">
      <feOffset dx="0" dy="0"/>
      <feGaussianBlur result="uuid-4b3d554d-4b84-4283-a652-259b737231b9" stdDeviation="5"/>
      <feFlood flood-color="#fff" flood-opacity=".5"/>
      <feComposite in2="uuid-4b3d554d-4b84-4283-a652-259b737231b9" operator="in"/>
      <feComposite in="SourceGraphic"/>
    </filter>
  </defs>
  <path d="M266.859,346.162v-83.527c-5.969,3.514-11.465,6.558-16.701,10.013-.913,.603-1.015,2.934-1.016,4.467-.013,31.769,.044,63.539,.086,95.308,.002,1.468,0,2.936,0,5.122-35.654-21.014-70.743-41.695-106.325-62.666,1.284-.861,2.184-1.531,3.143-2.097,27.224-16.06,54.423-32.164,81.728-48.08,2.892-1.686,3.74-3.55,3.716-6.785-.138-18.975-.326-63.192-.326-63.192l17.874-49.319c0,27.316,0,78.339,0,106.622,6.125-3.642,11.673-6.784,17-10.276,.82-.537,.863-2.686,.865-4.091,.046-31.769,.035-63.537,.035-95.306,0-1.483,0-2.965,0-5.174,35.624,20.993,70.705,41.666,106.387,62.694-23.691,13.978-46.924,27.686-70.757,41.748,23.845,14.067,47.062,27.764,70.801,41.769-5.892,3.482-11.245,6.795-16.777,9.762-.896,.481-2.74-.295-3.88-.963-21.213-12.421-42.386-24.914-63.57-37.388-1.255-.739-2.53-1.442-4.442-2.53,0,1.956,0,3.387,0,4.817,0,24.894-.036,49.789,.051,74.683,.01,2.734-.55,4.49-3.152,5.831-4.773,2.458-9.318,5.376-14.741,8.562Zm-88.472-31.419c17.875,10.529,35.233,20.752,52.777,31.086v-62.21c-17.741,10.462-35.025,20.655-52.777,31.124Zm159.254-114.849c-17.882-10.534-35.147-20.704-52.691-31.038v62.003c17.75-10.431,34.95-20.539,52.691-30.965Z" style="fill: none; filter: url(#uuid-ba717d89-4ba1-450e-ad9b-6a6dc41a95ad); stroke: #fff; stroke-miterlimit: 10; stroke-width: 4px;"/>
  <g style="filter: url(#uuid-52459dd1-810a-4c7e-afaf-382c012c2ab5);">
    <circle cx="266.042" cy="262.386" r="192.297" style="fill: none; stroke: #fff; stroke-miterlimit: 10; stroke-width: 4px;"/>
    <path d="M451.233,262.386c0,6.632-20.307,12.071-21.025,18.512-.733,6.575,17.86,16.364,16.42,22.699-1.463,6.436-22.471,7.219-24.621,13.364-2.175,6.218,13.754,19.923,10.919,25.798-2.857,5.923-23.507,1.986-26.988,7.515s8.976,22.471,4.893,27.583c-4.092,5.125-23.351-3.296-27.983,1.336-4.632,4.632,3.789,23.891-1.336,27.983s-22.027-8.392-27.583-4.894-1.593,24.131-7.515,26.988c-5.875,2.834-19.58-13.095-25.798-10.92-6.145,2.15-6.928,23.158-13.364,24.621-6.335,1.44-16.124-17.153-22.699-16.421-6.441,.718-11.879,21.025-18.512,21.025s-12.071-20.307-18.512-21.025c-6.575-.733-16.364,17.86-22.699,16.42-6.436-1.463-7.219-22.471-13.364-24.621-6.218-2.175-19.923,13.754-25.798,10.919-5.923-2.857-1.986-23.507-7.515-26.988s-22.471,8.976-27.583,4.893,3.296-23.351-1.336-27.983-23.891,3.789-27.983-1.336,8.392-22.027,4.894-27.583-24.131-1.593-26.988-7.515c-2.834-5.875,13.095-19.58,10.92-25.798-2.15-6.145-23.158-6.928-24.621-13.364-1.44-6.335,17.153-16.124,16.421-22.699-.718-6.441-21.025-11.879-21.025-18.512s20.307-12.071,21.025-18.512c.733-6.575-17.86-16.364-16.42-22.699,1.463-6.436,22.471-7.219,24.621-13.364,2.175-6.218-13.754-19.923-10.919-25.798,2.857-5.923,23.507-1.986,26.988-7.515s-8.976-22.471-4.893-27.583,23.351,3.296,27.983-1.336-3.789-23.891,1.336-27.983,22.027,8.392,27.583,4.894,1.593-24.131,7.515-26.988c5.875-2.834,19.58,13.095,25.798,10.92,6.145-2.15,6.928-23.158,13.364-24.621,6.335-1.44,16.124,17.153,22.699,16.421,6.441-.718,11.879-21.025,18.512-21.025s12.071,20.307,18.512,21.025c6.575,.733,16.364-17.86,22.699-16.42,6.436,1.463,7.219,22.471,13.364,24.621,6.218,2.175,19.923-13.754,25.798-10.919,5.923,2.857,1.986,23.507,7.515,26.988s22.471-8.976,27.583-4.893-3.296,23.351,1.336,27.983,23.891-3.789,27.983,1.336-8.392,22.027-4.894,27.583,24.131,1.593,26.988,7.515c2.834,5.875-13.095,19.58-10.92,25.798,2.15,6.145,23.158,6.928,24.621,13.364,1.44,6.335-17.153,16.124-16.421,22.699,.718,6.441,21.025,11.879,21.025,18.512Z" style="fill: none; stroke: #fff; stroke-miterlimit: 10; stroke-width: 4px;"/>
    <circle cx="266.042" cy="262.386" r="159.423" style="fill: none; stroke: #fff; stroke-miterlimit: 10; stroke-width: 4px;"/>
  </g>
  <rect width="530.809" height="503.234" style="fill: none;"/>
</svg>